<svg viewBox="0 0 512 512" xmlns="http://www.w3.org/2000/svg"><path d="m0 0h512v512h-512z"/><path d="m169.344 35.844a9.5 9.5 0 0 0 -9.344 9.626v117.343h-114.5a9.5 9.5 0 1 0 0 19h114.5v151h-114.5a9.5 9.5 0 1 0 0 19h114.5v114.687a9.5 9.5 0 1 0 19 0v-114.688h151v114.688a9.5 9.5 0 1 0 19 0v-114.688h117.406a9.5 9.5 0 1 0 0-19h-117.406v-151h115.563a9.5 9.5 0 1 0 0-19h-115.563v-117.342a9.5 9.5 0 0 0 -9.656-9.626 9.5 9.5 0 0 0 -9.344 9.626v117.343h-151v-117.343a9.5 9.5 0 0 0 -9.656-9.626zm-83.344.126c-13.07 0-25.77 4.94-35.156 13.843-9.386 8.902-14.844 21.247-14.844 34.061s5.458 25.16 14.844 34.063 22.086 13.873 35.156 13.873 25.77-4.97 35.156-13.875c9.386-8.901 14.844-21.245 14.844-34.059s-5.458-25.16-14.844-34.063-22.086-13.843-35.156-13.843zm170 0c-13.07 0-25.77 4.94-35.156 13.843-9.386 8.902-14.844 21.247-14.844 34.061s5.458 25.16 14.844 34.063 22.086 13.873 35.156 13.873 25.77-4.97 35.156-13.875c9.386-8.901 14.844-21.245 14.844-34.059s-5.458-25.16-14.844-34.063-22.086-13.843-35.156-13.843zm138.844 9.218a9.5 9.5 0 0 0 -6.594 16.312l22.375 22.375-21.625 21.625a9.502 9.502 0 1 0 13.438 13.438l21.625-21.626 22.375 22.407a9.502 9.502 0 1 0 13.437-13.44l-22.375-22.403 21.625-21.625a9.5 9.5 0 0 0 -6.906-16.313 9.5 9.5 0 0 0 -6.533 2.876l-21.625 21.624-22.375-22.374a9.5 9.5 0 0 0 -6.843-2.876zm-308.844 9.78c8.137 0 16.485 3.337 22.094 8.657 5.608 5.32 8.937 12.95 8.937 20.25s-3.328 14.96-8.936 20.28c-5.61 5.32-13.957 8.626-22.094 8.626s-16.485-3.304-22.094-8.624c-5.608-5.32-8.937-12.98-8.937-20.28 0-7.302 3.328-14.93 8.936-20.25 5.61-5.32 13.957-8.657 22.094-8.657zm170 0c8.137 0 16.485 3.337 22.094 8.657 5.608 5.32 8.937 12.95 8.937 20.25s-3.328 14.96-8.936 20.28c-5.61 5.32-13.957 8.626-22.094 8.626s-16.485-3.304-22.094-8.624c-5.608-5.32-8.937-12.98-8.937-20.28 0-7.302 3.328-14.93 8.936-20.25 5.61-5.32 13.957-8.657 22.094-8.657zm-77 126.844h151v151h-151zm245.063 26.282c-13.07 0-25.77 4.94-35.157 13.844-9.386 8.903-14.844 21.248-14.844 34.062s5.458 25.16 14.844 34.063 22.087 13.875 35.156 13.875c13.07 0 25.77-4.972 35.157-13.875 9.385-8.904 14.842-21.25 14.842-34.063 0-12.814-5.457-25.16-14.843-34.063-9.387-8.903-22.088-13.843-35.158-13.843zm-197.25 9.22a9.5 9.5 0 0 0 -6.625 16.31l22.375 22.376-21.625 21.625a9.502 9.502 0 1 0 13.437 13.438l21.625-21.625 22.375 22.375a9.502 9.502 0 1 0 13.438-13.438l-22.375-22.375 21.625-21.625a9.5 9.5 0 0 0 -6.907-16.313 9.5 9.5 0 0 0 -6.53 2.875l-21.626 21.626-22.375-22.375a9.5 9.5 0 0 0 -6.813-2.875zm197.25 9.78c8.136 0 16.485 3.305 22.093 8.625 5.61 5.32 8.938 12.98 8.938 20.28s-3.33 14.93-8.938 20.25-13.957 8.656-22.094 8.656c-8.136 0-16.485-3.336-22.093-8.656-5.61-5.32-8.94-12.95-8.94-20.25s3.33-14.96 8.94-20.28c5.607-5.32 13.956-8.626 22.092-8.626zm-168.063 153.062c-13.07 0-25.77 4.94-35.156 13.844-9.386 8.903-14.844 21.25-14.844 34.063s5.458 25.19 14.844 34.093c9.386 8.904 22.086 13.874 35.156 13.874s25.77-4.97 35.156-13.874c9.386-8.903 14.844-21.28 14.844-34.094 0-12.813-5.458-25.16-14.844-34.062-9.386-8.903-22.087-13.844-35.156-13.844zm-199.188 9.22a9.5 9.5 0 0 0 -6.624 16.312l22.374 22.406-21.622 21.626a9.502 9.502 0 1 0 13.437 13.436l21.623-21.626 22.375 22.376a9.502 9.502 0 1 0 13.438-13.437l-22.376-22.376 21.626-21.625a9.5 9.5 0 0 0 -6.907-16.314 9.5 9.5 0 0 0 -6.53 2.875l-21.626 21.628-22.375-22.407a9.5 9.5 0 0 0 -6.813-2.875zm199.188 9.811c8.137 0 16.485 3.304 22.094 8.625 5.608 5.32 8.937 12.948 8.937 20.25 0 7.3-3.328 14.96-8.936 20.28-5.61 5.32-13.957 8.626-22.094 8.626s-16.485-3.306-22.094-8.626c-5.608-5.32-8.937-12.98-8.937-20.28 0-7.303 3.328-14.93 8.936-20.252 5.61-5.32 13.957-8.625 22.094-8.625z" fill="#fff"/></svg>